HIERARCHY
ROOT Hip
{
	OFFSET	0.00  0.00  0.00 
	CHANNELS 6 Xposition Yposition Zposition Xrotation Zrotation Yrotation
	JOINT Abdomen
	{
		OFFSET	0.000000 0.000000 0.000000
		CHANNELS 3 Xrotation Zrotation Yrotation
		JOINT Chest
		{
			OFFSET	0.000000 5.018152 -1.882229
			CHANNELS 3 Xrotation Zrotation Yrotation
			JOINT neckDummy
			{
				OFFSET	0.000000 8.316447 0.784897
				CHANNELS 3 Xrotation Yrotation Zrotation
				JOINT Neck
				{
					OFFSET	0.000000 2.280413 -0.392801
					CHANNELS 3 Xrotation Zrotation Yrotation
					JOINT Head
					{
						OFFSET	0.000000 3.496879 0.529469
						CHANNELS 3 Xrotation Zrotation Yrotation
						End Site
						{
							OFFSET 0.000000 10.353750 0.000000
						}
					}
				}
			}
			JOINT Left Collar
			{
				OFFSET	0.599237 8.316447 0.784897
				CHANNELS 3 Yrotation Zrotation Xrotation
				JOINT Left Shoulder
				{
					OFFSET	6.421198 0.010146 -0.332128
					CHANNELS 3 Zrotation Yrotation Xrotation
					JOINT Left Forearm
					{
						OFFSET	10.552783 0.025574 0.125508
						CHANNELS 3 Yrotation Zrotation Xrotation
						JOINT Left Hand
						{
							OFFSET	11.035963 0.319619 0.041520
							CHANNELS 3 Zrotation Yrotation Xrotation
							End Site
							{
								OFFSET 10.353753 0.000000 0.000000
							}
						}
					}
				}
			}
			JOINT Right Collar
			{
				OFFSET	-0.599237 8.316447 0.784897
				CHANNELS 3 Yrotation Zrotation Xrotation
				JOINT Right Shoulder
				{
					OFFSET	-6.421198 0.010146 -0.332128
					CHANNELS 3 Zrotation Yrotation Xrotation
					JOINT Right Forearm
					{
						OFFSET	-10.552783 0.025574 0.125508
						CHANNELS 3 Yrotation Zrotation Xrotation
						JOINT Right Hand
						{
							OFFSET	-11.035963 0.319619 0.041520
							CHANNELS 3 Zrotation Yrotation Xrotation
							End Site
							{
								OFFSET -10.353753 0.000000 0.000000
							}
						}
					}
				}
			}
		}
	}
	JOINT Left Thigh
	{
		OFFSET	4.500466 -6.400484 -1.832696
		CHANNELS 3 Xrotation Zrotation Yrotation
		JOINT Left Shin
		{
			OFFSET	-1.359117 -18.918689 1.179887
			CHANNELS 3 Xrotation Zrotation Yrotation
			JOINT Left Foot
			{
				OFFSET	-0.652380 -17.215187 -0.312137
				CHANNELS 3 Xrotation Yrotation Zrotation
				End Site
				{
					OFFSET 0.000000 0.000000 10.353752
				}
			}
		}
	}
	JOINT Right Thigh
	{
		OFFSET	-4.500466 -6.400484 -1.832696
		CHANNELS 3 Xrotation Zrotation Yrotation
		JOINT Right Shin
		{
			OFFSET	1.359117 -18.918689 1.179887
			CHANNELS 3 Xrotation Zrotation Yrotation
			JOINT Right Foot
			{
				OFFSET	0.652380 -17.215187 -0.312137
				CHANNELS 3 Xrotation Yrotation Zrotation
				End Site
				{
					OFFSET 0.000000 0.000000 10.353752
				}
			}
		}
	}
}
MOTION
Frames:     19
Frame Time: 0.041667
0.000000 42.014907 0.240040 0.000000 0.000000 0.000000 0.000000 0.000000 0.000000 0.000000 0.000000 0.000000 0.000000 0.000000 0.000000 0.000000 0.000000 0.000000 0.000000 0.000000 0.000000 1.684490 -2.025940 -0.075026 -2.087109 8.177129 -0.122298 -7.899484 0.527643 -0.089605 0.000000 -0.175781 -0.878906 -2.021920 1.690310 -0.063351 0.349810 -10.013465 -0.051167 7.899112 -0.351571 0.252064 -0.000683 0.175780 0.000000 -4.764904 2.210420 0.388658 8.478389 -1.386170 -0.928793 -5.755159 0.727369 -0.843960 -4.458526 -3.943555 -0.417347 8.324343 1.388539 0.218333 -6.070144 -1.792028 1.665481 
-0.000002 41.876957 0.239410 -4.570681 1.574882 -0.368269 2.617793 -1.296993 -2.244075 2.575370 -2.213155 -0.637567 0.000000 0.000000 0.000000 -0.099719 -0.223039 1.167521 0.723822 -0.167231 2.405339 1.473663 -1.800518 -0.043753 -11.224498 -4.733934 -2.916207 -18.442816 -0.179627 -17.428873 0.593037 -0.648719 -0.883256 -1.771840 1.475285 -0.029524 8.736120 1.737743 -9.426064 -4.397298 25.454046 14.242788 -0.012028 -0.175369 0.000018 -0.004206 0.819268 0.934769 9.568921 -2.298225 -0.516974 -5.094007 0.193113 0.183789 -32.017197 -1.842335 -2.090213 54.934753 -1.864228 1.830004 -37.575581 -1.918497 2.514452 
-0.000004 41.754162 0.238838 -8.709870 2.775259 -0.701772 5.011546 -2.370565 -4.322419 4.908788 -4.082182 -1.233353 0.000000 0.000000 0.000000 -0.169491 -0.397212 2.142605 1.402743 -0.320545 4.488196 1.275506 -1.587479 -0.014844 -19.465986 -16.652884 -5.492302 -28.039524 -0.581441 -33.636936 0.756267 -1.185627 -0.537405 -1.537070 1.273621 0.001370 16.517702 12.823336 -18.281044 -15.863859 48.877987 27.720249 -0.475912 -0.738918 0.177323 3.485654 -0.343130 2.016434 11.430963 -3.498223 -0.729671 -7.880509 -0.686563 1.536413 -48.683025 0.472121 -4.653490 72.404434 -4.999383 1.171864 -49.733391 -1.326379 2.900083 
-0.000005 41.646101 0.238325 -12.429568 3.611547 -1.001476 7.187489 -3.226928 -6.239642 7.006980 -5.616653 -1.788518 0.000000 0.000000 0.000000 -0.210149 -0.523875 2.930602 2.038011 -0.460330 6.257539 1.089666 -1.386477 0.011766 -26.963356 -27.274464 -8.419983 -37.015789 -0.781943 -48.148670 0.971589 -1.671852 -0.719586 -1.317184 1.084947 0.029412 23.725702 22.663628 -26.451139 -25.671232 69.729866 39.645084 -0.119968 -0.692817 0.175400 6.577682 -1.549114 2.700591 13.300268 -4.063131 -0.381632 -8.501523 -1.389306 3.061842 -61.976810 2.763548 -7.194018 79.913002 -6.917521 0.406402 -53.962379 -0.624452 2.671941 
-0.000007 41.552463 0.237869 -15.738595 4.091400 -1.268091 9.150200 -3.870650 -7.999130 8.874895 -6.823601 -2.303918 0.000000 0.000000 0.000000 -0.222305 -0.604030 3.535445 2.630545 -0.586870 7.719959 0.915884 -1.197260 0.036126 -33.907478 -36.883244 -11.331909 -45.674828 -1.223282 -61.115959 0.727505 -1.791568 -0.543364 -1.111869 0.908989 0.054662 30.217358 31.487528 -33.659851 -31.130999 88.421188 47.122906 -0.419620 -1.156720 0.354541 8.306336 -2.235120 3.520933 17.173021 -4.604531 -0.741171 -9.157960 -1.721077 4.256117 -71.629654 4.424534 -9.103855 80.064629 -7.676376 -0.044255 -53.255894 0.947769 2.756896 
-0.000008 41.473049 0.237468 -18.642664 4.219779 -1.502078 10.902648 -4.304690 -9.603080 10.515736 -7.707583 -2.780106 0.000000 0.000000 0.000000 -0.206356 -0.638323 3.959684 3.180939 -0.700349 8.879727 0.753992 -1.019665 0.058267 -39.857841 -45.258312 -14.065073 -53.760014 -1.620729 -72.579063 0.933935 -2.276944 -0.726119 -0.920921 0.745571 0.077159 36.564251 39.343384 -40.326054 -40.499947 104.762070 59.239864 -0.492179 -1.127765 0.178032 8.564119 -2.086743 4.054002 23.322176 -5.505076 -0.878320 -10.086143 -2.429801 5.587995 -77.809059 5.769698 -10.343820 75.238358 -8.205541 0.299125 -49.897064 1.840437 2.958902 
-0.000009 41.407765 0.237123 -21.144426 3.998984 -1.703650 12.446209 -4.530419 -11.052507 11.930988 -8.270714 -3.217338 0.000000 0.000000 0.000000 -0.162486 -0.627054 4.204501 3.689469 -0.800853 9.738825 0.603913 -0.853614 0.078203 -45.306606 -52.428871 -16.718405 -61.142120 -1.897796 -82.991516 0.532005 -2.402792 -0.369532 -0.744248 0.594611 0.096921 42.065777 46.081879 -46.536358 -45.701599 118.659851 67.354095 -0.461027 -1.140851 0.002575 8.854189 -1.722353 4.610291 28.124571 -5.845912 -1.208472 -10.174334 -2.794149 6.789613 -80.847252 6.529130 -10.625000 66.736908 -7.692798 1.245075 -44.948578 2.426476 2.931748 
-0.000010 41.356625 0.236833 -23.243488 3.428672 -1.872776 13.780678 -4.547635 -12.347262 13.120431 -8.512679 -3.615576 0.000000 0.000000 0.000000 -0.090667 -0.570178 4.269720 4.156094 -0.888370 10.296957 0.465657 -0.699119 0.095933 -50.071495 -58.390072 -19.590298 -68.200127 -2.048160 -92.229843 0.338764 -2.614882 -0.184059 -0.581863 0.456121 0.113945 47.193909 51.730495 -52.065826 -49.253502 130.448151 74.129181 -0.509460 -1.120066 0.002074 9.986969 -1.389967 4.922825 30.460875 -5.863894 -1.270807 -10.266005 -2.435789 7.517028 -81.620422 7.655484 -10.303064 56.739368 -8.052935 1.809063 -39.325027 2.171227 3.580569 
-0.000011 41.319750 0.236599 -24.936409 2.505858 -2.009178 14.904267 -4.354555 -13.486024 14.082136 -8.430734 -3.974486 0.000000 0.000000 0.000000 0.009339 -0.467306 4.153805 4.580455 -0.962787 10.551552 0.339327 -0.556279 0.111438 -54.141014 -63.402016 -21.940552 -74.927208 -2.220310 -99.729706 0.273325 -2.799202 -0.361826 -0.433887 0.330207 0.128209 51.604767 56.503735 -56.873878 -51.618507 140.106781 79.595268 -0.226240 -0.849292 -0.174718 9.500190 -0.668687 4.890632 34.217812 -5.982768 -1.133467 -7.947877 -2.270185 8.455137 -80.605217 7.417915 -9.238338 45.359718 -6.251726 2.969939 -33.162464 2.126350 3.087946 
-0.000011 41.297369 0.236423 -26.216675 1.224887 -2.112331 15.813597 -3.947806 -14.466290 14.812450 -8.019684 -4.293439 0.000000 0.000000 0.000000 0.137985 -0.317700 3.853853 4.961875 -1.023896 10.497742 0.225112 -0.425280 0.124682 -57.507835 -67.036667 -24.721897 -80.885155 -2.261747 -106.060890 -0.041215 -2.636397 -0.000821 -0.300553 0.217071 0.139667 55.393574 60.275955 -61.241394 -51.979347 147.476639 83.397713 -0.381186 -0.590836 0.001692 9.634539 0.356369 4.682598 36.888977 -6.072465 -1.246021 -7.968985 -1.385518 9.219753 -77.625168 7.256111 -8.176002 32.208393 -4.726050 3.815102 -27.744637 1.318728 2.079570 
-0.000011 41.289819 0.236304 -27.074650 -0.422602 -2.181460 16.503662 -3.322399 -15.284358 15.305970 -7.271845 -4.571501 0.000000 0.000000 0.000000 0.295939 -0.120269 3.365566 5.299352 -1.071385 10.128325 0.123297 -0.306400 0.135611 -59.952682 -69.404106 -27.309467 -86.341934 -2.293212 -110.657738 -0.443290 -2.777377 0.006527 -0.182202 0.117012 0.148254 58.851135 62.681316 -65.021828 -51.132553 152.186295 86.106483 -0.160123 -0.072524 0.175882 9.059840 1.587001 4.013235 39.412880 -5.998557 -0.965163 -7.535931 -0.595352 9.453996 -72.683189 6.073446 -6.955446 16.063612 -1.936026 4.406849 -19.509472 0.302048 0.402529 
-0.000012 41.297552 0.236246 -27.497499 -2.447750 -2.215530 16.967800 -2.471690 -15.935300 15.555500 -6.176980 -4.807430 0.000000 0.000000 0.000000 0.484092 0.126441 2.683220 5.591550 -1.104840 9.433710 0.034258 -0.200007 0.144157 -61.710945 -70.640091 -29.894020 -91.276001 -2.499773 -114.007843 -0.977161 -2.637424 0.017975 -0.079290 0.030426 0.153883 61.897495 64.074150 -67.853165 -48.386749 154.174789 87.362419 0.153017 0.086515 0.000185 6.107919 2.973441 3.456741 44.281300 -5.414379 -1.052194 -7.545401 0.459162 9.520582 -75.345207 4.748701 -6.715645 15.500031 -2.128825 4.546453 -13.463912 -1.399911 -0.338439 
-0.000012 41.320922 0.236249 -27.475155 -4.859295 -2.213730 17.200783 -1.390464 -16.415249 15.555393 -4.727060 -5.000250 0.000000 0.000000 0.000000 0.703143 0.423570 1.802324 5.837420 -1.123937 8.406372 -0.041709 -0.106389 0.150263 -62.712337 -70.329109 -32.833313 -95.504913 -2.514880 -115.742447 -1.480193 -2.596221 0.030368 0.007827 -0.042373 0.156485 63.843056 64.426537 -70.027573 -44.250141 154.639908 87.699417 0.233438 0.472864 0.002051 0.333346 4.402091 2.744627 58.623650 -5.139565 -2.569603 -12.462160 -2.227602 7.320889 -77.098495 3.356148 -6.383741 15.154117 -2.113899 4.366174 -10.239939 -3.750996 -1.739462 
-0.000011 41.359550 0.236312 -27.018393 -7.647886 -2.176927 17.208204 -0.084300 -16.728342 15.311692 -2.930678 -5.151004 0.000000 0.000000 0.000000 0.952343 0.769897 0.727685 6.038085 -1.129023 7.054363 -0.104921 -0.025237 0.153989 -62.838547 -68.978508 -35.358147 -99.378197 -2.518088 -115.848175 -2.224615 -2.491744 0.043438 0.079530 -0.101721 0.156135 65.590340 63.550907 -71.490784 -38.592888 151.905426 86.334846 0.737571 1.197337 0.010742 -6.310184 6.133862 1.928270 72.042892 -4.679764 -3.959015 -15.994455 -4.864376 5.131514 -78.639557 1.326818 -5.846396 14.618618 -2.083756 4.535588 -5.771361 -6.165513 -2.755935 
-0.000011 41.412960 0.236433 -26.140745 -10.801775 -2.106213 16.997091 1.439793 -16.879778 14.831985 -0.798628 -5.261004 0.000000 0.000000 0.000000 1.230755 1.163891 -0.534663 6.194952 -1.120535 5.387798 -0.155775 0.043836 0.155409 -62.352730 -66.276924 -37.950069 -102.540291 -2.153490 -114.583076 -2.890414 -2.297058 -0.120922 0.136300 -0.148036 0.152923 66.275703 61.793499 -72.678879 -31.359814 146.866959 83.649857 0.924793 2.280669 0.023588 -12.166625 7.298886 0.734021 83.315765 -3.672432 -4.869160 -18.433779 -7.531403 2.662984 -83.156883 -1.160211 -4.843687 20.606543 -3.661139 4.216658 -6.397976 -8.402276 -3.096673 
-0.000011 41.480789 0.236611 -24.852568 -14.311977 -2.002422 16.572823 3.176454 -16.873533 14.122078 1.660833 -5.331252 0.000000 0.000000 0.000000 1.537658 1.604377 -1.980101 6.309100 -1.098806 3.414416 -0.194575 0.101129 0.154579 -61.002762 -62.741325 -40.704716 -105.180580 -2.308226 -112.126511 -3.817925 -1.796134 0.055990 0.178505 -0.181639 0.146920 66.641968 58.873695 -73.333572 -22.480114 139.898819 79.096367 1.185948 2.743071 0.382127 -18.369785 8.220538 -0.706466 93.684265 -2.652302 -5.368471 -20.167057 -9.353795 0.287363 -91.094086 -3.190890 -2.873450 35.207764 -7.194439 3.238693 -3.962308 -10.725333 -0.354387 
-0.000010 41.562783 0.236844 -23.161102 -18.172203 -1.866138 15.939157 5.121933 -16.712393 13.186035 4.441926 -5.362449 0.000000 0.000000 0.000000 1.872551 2.090537 -3.605398 6.381281 -1.064071 1.139632 -0.221535 0.146849 0.151540 -59.083820 -57.611813 -43.501160 -107.469475 -1.930523 -108.033096 -4.576722 -1.257930 0.050132 0.206400 -0.202753 0.138175 66.621445 54.725231 -73.016243 -12.035786 130.319885 73.646523 1.643857 3.694206 0.588021 -24.782362 9.255951 -2.603339 103.331894 -1.659362 -5.663631 -21.476501 -11.555567 -2.192384 -96.465904 -5.657287 0.591407 46.564705 -10.288745 1.651576 -2.391179 -11.715075 3.291353 
-0.000009 41.658794 0.237133 -21.070549 -22.378811 -1.697697 15.098273 7.274056 -16.397966 12.026207 7.541306 -5.355002 0.000000 0.000000 0.000000 2.235142 2.621894 -5.408682 6.411933 -1.016464 -1.433420 -0.236776 0.181117 0.146313 -56.466225 -51.392937 -46.164547 -109.095474 -2.084275 -102.559975 -5.665762 -1.246304 0.060799 0.220136 -0.211510 0.126717 65.942329 49.898239 -72.360794 -0.857935 118.419266 67.734383 2.275914 4.952485 0.099256 -31.499098 10.330427 -4.665194 112.444298 -0.789183 -5.909603 -22.232821 -14.211741 -4.367408 -99.877838 -8.239910 5.838418 57.407284 -12.829498 -0.409346 -0.915739 -10.685478 8.356761 
-0.000008 41.768781 0.237476 -18.582081 -26.930780 -1.497196 14.050783 9.632215 -15.930706 10.643254 10.958034 -5.309025 0.000000 0.000000 0.000000 2.625349 3.198316 -7.389431 6.401178 -0.956024 -4.303859 -0.240333 0.203965 0.138907 -52.946926 -44.144276 -48.821388 -110.322701 -1.900881 -95.882385 -6.617329 -0.912624 0.402583 0.219754 -0.207945 0.112554 64.782196 43.639832 -70.909103 11.704267 104.336494 60.344803 2.884094 5.831952 0.685121 -38.240543 11.235700 -6.775544 120.326103 -0.095401 -6.132414 -21.583841 -16.141520 -5.868551 -99.589340 -10.701713 12.640731 66.067871 -14.962199 -2.802325 -0.329604 -8.081656 15.290046 
